<svg id="Layer_1" enable-background="new 0 0 512 512" height="512" viewBox="0 0 512 512" width="512" xmlns="http://www.w3.org/2000/svg"><path fill="#A0BEDB" d="m256 512c-68.38 0-132.667-26.629-181.02-74.98-48.351-48.353-74.98-112.64-74.98-181.02s26.629-132.667 74.98-181.02c48.353-48.351 112.64-74.98 181.02-74.98s132.667 26.629 181.02 74.98c48.351 48.353 74.98 112.64 74.98 181.02s-26.629 132.667-74.98 181.02c-48.353 48.351-112.64 74.98-181.02 74.98zm0-472c-119.103 0-216 96.897-216 216s96.897 216 216 216 216-96.897 216-216-96.897-216-216-216zm38.314 96.437 26.478-19.264c8.932-6.498 10.904-19.007 4.406-27.939-6.498-8.931-19.006-10.905-27.939-4.406l-26.478 19.264c-8.678 6.314-20.339 6.314-29.018 0-.089-.065-26.267-18.457-26.267-18.457-9.038-6.349-21.513-4.17-27.862 4.868s-4.17 21.512 4.868 27.862l25.875 18.178c11.346 8.208 24.617 12.309 37.894 12.309 13.332.001 26.667-4.139 38.043-12.415zm25.545 282.602 11.149-31.586c3.474-9.841 12.819-16.453 23.255-16.453h35.245c11.046 0 20-8.954 20-20s-8.954-20-20-20h-35.245c-27.363 0-51.866 17.336-60.974 43.139l-11.149 31.586c-3.677 10.416 1.787 21.84 12.202 25.517 2.202.777 4.448 1.146 6.657 1.146 8.242 0 15.961-5.135 18.86-13.349zm109.776-142.682c6.888-8.636 5.471-21.219-3.164-28.107l-25.243-20.135c-8.39-6.692-11.483-17.936-7.698-27.978l11.339-30.084c3.896-10.336-1.325-21.873-11.661-25.769-10.337-3.894-21.874 1.326-25.769 11.661l-11.339 30.084c-9.924 26.331-1.813 55.81 20.185 73.357l25.243 20.135c3.684 2.938 8.086 4.365 12.459 4.365 5.876.001 11.699-2.577 15.648-7.529zm-211.488 153.525c10.428-3.641 15.931-15.046 12.29-25.475l-11.215-32.121c-9.055-25.933-33.583-43.347-61.053-43.347-.014 0-.03 0-.043 0l-35.142.03c-11.046.01-19.993 8.972-19.983 20.018.01 11.04 8.961 19.983 20 19.982h.018l35.138-.03h.017c10.475 0 19.832 6.643 23.285 16.532l11.215 32.121c2.88 8.247 10.614 13.413 18.882 13.413 2.184.001 4.41-.361 6.591-1.123zm-107.676-150.264 25.365-20.231c21.998-17.546 30.109-47.026 20.186-73.357l-11.339-30.084c-3.896-10.336-15.434-15.559-25.769-11.661-10.335 3.896-15.556 15.433-11.661 25.769l11.339 30.083c3.785 10.042.691 21.286-7.698 27.978l-25.365 20.231c-8.635 6.888-10.052 19.472-3.165 28.106 3.95 4.952 9.771 7.53 15.648 7.53 4.373.001 8.776-1.426 12.459-4.364zm160.902 45.382h-32.019c-20.574 0-38.788-13.11-45.325-32.623l-10.551-31.496c-6.676-19.928.274-41.598 17.295-53.922l26.069-18.876c16.307-11.807 38.423-12.097 55.034-.722l26.325 18.028c17.299 11.846 24.827 33.287 18.732 53.352l-9.824 32.345c-6.161 20.285-24.541 33.914-45.736 33.914zm-16.5-105.996c-1.607 0-3.213.493-4.572 1.477l-26.069 18.876c-2.782 2.014-3.917 5.558-2.825 8.817l10.551 31.497c1.067 3.187 4.04 5.328 7.396 5.328h32.019c3.458 0 6.457-2.227 7.463-5.539l9.824-32.345c.997-3.282-.233-6.788-3.06-8.724l-26.326-18.029c-1.323-.905-2.863-1.358-4.401-1.358z"/></svg>